<svg width="68" height="80" viewBox="0 0 68 80" fill="none" xmlns="http://www.w3.org/2000/svg">
<path d="M33.9998 1.0564C25.0983 1.06652 16.5643 4.58661 10.2699 10.8444C3.97561 17.1023 0.434987 25.5868 0.424805 34.4367C0.424805 42.7817 4.81753 53.5817 12.1796 63.2967C19.587 73.0848 27.743 78.9437 33.9998 78.9437C40.2567 78.9437 48.4126 73.0987 55.8201 63.2967C63.1821 53.5608 67.5748 42.7817 67.5748 34.4367C67.5646 25.5868 64.024 17.1023 57.7297 10.8444C51.4353 4.58661 42.9013 1.06652 33.9998 1.0564ZM11.6165 35.8275C11.6165 34.7209 12.0586 33.6596 12.8457 32.8771C13.6328 32.0946 14.7003 31.655 15.8133 31.655C19.1526 31.655 22.3551 32.9738 24.7163 35.3213C27.0775 37.6688 28.404 40.8527 28.404 44.1726C28.404 45.2792 27.9618 46.3405 27.1747 47.123C26.3877 47.9055 25.3202 48.3451 24.2071 48.3451C20.8679 48.3451 17.6654 47.0263 15.3042 44.6788C12.943 42.3313 11.6165 39.1474 11.6165 35.8275ZM39.5956 65.0353H28.404C27.6619 65.0353 26.9503 64.7422 26.4256 64.2205C25.9008 63.6989 25.6061 62.9913 25.6061 62.2536C25.6061 61.5158 25.9008 60.8083 26.4256 60.2866C26.9503 59.765 27.6619 59.4719 28.404 59.4719H39.5956C40.3377 59.4719 41.0494 59.765 41.5741 60.2866C42.0988 60.8083 42.3936 61.5158 42.3936 62.2536C42.3936 62.9913 42.0988 63.6989 41.5741 64.2205C41.0494 64.7422 40.3377 65.0353 39.5956 65.0353ZM43.7925 48.3451C42.6794 48.3451 41.6119 47.9055 40.8249 47.123C40.0378 46.3405 39.5956 45.2792 39.5956 44.1726C39.5956 40.8527 40.9222 37.6688 43.2834 35.3213C45.6446 32.9738 48.847 31.655 52.1863 31.655C53.2994 31.655 54.3668 32.0946 55.1539 32.8771C55.941 33.6596 56.3831 34.7209 56.3831 35.8275C56.3831 37.4714 56.0575 39.0991 55.4247 40.6178C54.792 42.1365 53.8646 43.5164 52.6954 44.6788C51.5263 45.8412 50.1383 46.7632 48.6107 47.3923C47.0832 48.0214 45.4459 48.3451 43.7925 48.3451Z" fill="black"/>
</svg>
